<?xml version="1.0" standalone="no"?>
<!DOCTYPE svg PUBLIC "-//W3C//DTD SVG 20010904//EN"
 "http://www.w3.org/TR/2001/REC-SVG-20010904/DTD/svg10.dtd">
<svg version="1.0" xmlns="http://www.w3.org/2000/svg"
 width="409.000000pt" height="407.000000pt" viewBox="0 0 409.000000 407.000000"
 preserveAspectRatio="xMidYMid meet">

<g transform="translate(0.000000,407.000000) scale(0.100000,-0.100000)"
fill="#000000" stroke="none">
<path d="M630 4033 c-147 -15 -275 -73 -381 -171 -79 -73 -111 -116 -161 -217
-66 -131 -63 -56 -63 -1630 0 -1606 -6 -1475 75 -1634 69 -135 158 -225 290
-291 162 -82 15 -75 1660 -75 1403 0 1468 1 1535 19 258 69 455 286 495 542 7
47 10 520 8 1494 -4 1587 2 1461 -72 1609 -61 121 -158 215 -287 281 -158 80
-20 74 -1629 76 -789 0 -1451 -1 -1470 -3z m1626 -454 c478 -66 785 -333 917
-794 57 -198 62 -256 61 -695 0 -316 -4 -415 -17 -497 -33 -208 -102 -397
-192 -532 l-53 -79 169 -168 c93 -93 169 -171 169 -174 0 -3 -52 -59 -115
-125 l-115 -120 -112 110 c-62 61 -145 141 -185 179 l-72 69 -91 -42 c-182
-85 -364 -116 -619 -108 -234 8 -374 40 -536 122 -257 131 -439 363 -524 669
-51 182 -56 244 -56 711 0 369 3 443 18 525 102 542 418 866 922 944 110 17
326 20 431 5z"/>
<path d="M1891 3220 c-325 -68 -521 -295 -588 -680 -25 -140 -24 -752 0 -894
65 -375 260 -606 566 -672 90 -19 302 -19 386 1 74 17 165 53 165 65 0 5 -82
87 -182 184 l-182 176 121 123 122 123 183 -183 c101 -101 188 -183 195 -183
28 0 99 190 130 345 26 133 26 795 0 932 -70 364 -235 570 -522 649 -70 19
-326 28 -394 14z"/>
</g>
</svg>
